<?xml version="1.0" standalone="no"?>
<!DOCTYPE svg PUBLIC "-//W3C//DTD SVG 20010904//EN"
 "http://www.w3.org/TR/2001/REC-SVG-20010904/DTD/svg10.dtd">
<svg version="1.0" xmlns="http://www.w3.org/2000/svg"
 width="300.000000pt" height="168.000000pt" viewBox="0 0 300.000000 168.000000"
 preserveAspectRatio="xMidYMid meet">
<metadata>
Created by potrace 1.10, written by Peter Selinger 2001-2011
</metadata>
<g transform="translate(0.000000,168.000000) scale(0.100000,-0.100000)"
fill="#000000" stroke="none">
<path d="M1415 1329 c-82 -66 -161 -129 -175 -139 -24 -18 -24 -19 -6 -39 l19
-20 60 47 c33 26 75 66 95 90 19 23 39 42 44 42 13 0 -11 -41 -39 -67 -29 -27
-29 -37 0 -50 21 -10 26 -3 93 123 39 74 68 134 65 134 -3 -1 -73 -55 -156
-121z"/>
<path d="M1998 1331 c-77 -32 -86 -39 -73 -51 12 -13 -1 -30 -105 -138 -66
-68 -120 -116 -120 -108 0 9 -13 30 -29 48 -28 32 -31 32 -130 36 l-101 4 0
-184 0 -184 -43 -42 c-40 -39 -46 -42 -100 -42 l-57 0 0 66 0 66 65 -4 65 -4
0 59 0 59 -65 -4 -65 -3 0 53 0 52 70 0 70 0 0 55 0 55 -120 0 -120 0 0 -281
0 -281 55 4 c30 1 55 2 55 0 0 -5 -101 -102 -106 -102 -2 0 -4 11 -4 25 0 20
-5 25 -25 25 -25 0 -25 0 -25 -93 l0 -94 117 119 c94 95 122 118 145 118 24 0
28 4 28 28 0 17 10 38 25 52 14 13 25 35 25 48 0 14 3 22 6 19 4 -4 6 -38 5
-77 l-2 -70 83 0 c97 0 142 18 171 68 16 27 20 60 25 181 l5 149 133 133 c125
125 134 132 151 117 17 -15 20 -11 54 73 20 49 34 89 30 88 -3 0 -45 -17 -93
-38z m7 -67 c-10 -7 -22 -11 -26 -8 -16 9 -9 24 14 33 28 11 37 -7 12 -25z
m-672 -199 c-1 -5 -21 -13 -43 -16 -24 -3 -51 -15 -66 -30 -22 -22 -23 -29
-15 -72 10 -55 32 -76 79 -77 26 0 33 -4 30 -17 -2 -10 -10 -19 -18 -19 -8 -1
-23 -2 -33 -3 -10 0 -29 -12 -43 -26 -20 -20 -24 -33 -22 -72 2 -65 30 -93 93
-93 52 0 61 -19 19 -46 -22 -15 -32 -15 -80 -5 -29 7 -55 18 -55 24 -8 75 -5
445 4 455 12 15 153 13 150 -3z m310 -10 c52 -49 25 -83 -29 -36 -19 17 -39
31 -45 31 -6 0 -23 -13 -38 -28 -25 -24 -28 -33 -24 -77 2 -28 8 -64 14 -81 6
-21 6 -40 -1 -58 -11 -30 -14 -115 -4 -141 8 -19 64 -50 64 -35 0 5 7 10 15
10 8 0 24 15 36 33 16 26 19 46 17 109 -2 63 1 81 15 95 16 16 17 12 17 -84 0
-56 -4 -104 -10 -108 -5 -3 -7 -11 -4 -18 14 -37 -85 -81 -150 -68 -45 10 -62
63 -47 147 6 34 11 120 11 191 0 71 3 133 7 136 3 4 34 7 67 7 52 0 65 -4 89
-25z m-55 -51 c35 -24 30 -73 -13 -114 l-35 -34 0 82 c0 88 6 96 48 66z m118
-10 c-3 -9 -9 -28 -12 -42 -7 -31 -61 -92 -81 -92 -17 0 -16 6 3 35 9 13 17
31 18 39 3 20 53 76 67 76 6 0 8 -7 5 -16z m-90 -160 c-3 -9 -6 -44 -6 -79 0
-68 -15 -95 -51 -95 -16 0 -19 7 -19 56 0 48 4 61 33 94 33 41 54 52 43 24z"/>
<path d="M591 1117 c-40 -20 -64 -62 -69 -120 -7 -83 11 -123 89 -198 55 -52
69 -72 69 -95 0 -40 -13 -56 -41 -52 -21 3 -24 9 -27 51 l-3 47 -51 0 -51 0 7
-56 c12 -102 49 -144 126 -144 83 0 125 43 136 137 11 85 -9 129 -92 209 -76
73 -88 99 -58 128 25 25 54 4 54 -39 l0 -35 49 0 49 0 -5 43 c-11 91 -54 137
-125 137 -18 0 -44 -6 -57 -13z m116 -52 c7 -11 13 -28 13 -39 0 -18 -4 -16
-29 12 -17 17 -35 32 -41 32 -21 0 -70 -58 -70 -82 0 -31 25 -67 92 -133 48
-46 58 -62 64 -100 14 -97 -26 -175 -90 -175 -55 0 -113 82 -74 106 7 5 9 2 5
-8 -6 -16 24 -49 56 -61 22 -8 73 35 79 68 8 39 -25 98 -80 144 -62 52 -74 79
-68 156 3 48 9 63 29 81 32 27 93 26 114 -1z"/>
<path d="M831 840 l3 -280 121 0 122 0 -3 58 -3 57 -66 0 -67 0 0 60 0 60 61
0 61 0 0 58 0 58 -61 -2 -61 -3 -2 52 -1 52 70 0 70 0 -3 55 -4 55 -119 0
-120 0 2 -280z m192 225 c-2 -5 -18 -11 -37 -13 -19 -2 -46 -14 -60 -27 -58
-54 -18 -155 60 -155 22 0 34 -5 34 -14 0 -15 -21 -26 -51 -26 -11 0 -31 -11
-44 -25 -19 -18 -25 -35 -25 -70 0 -59 32 -95 85 -95 33 0 57 -21 42 -37 -8
-8 -137 -7 -145 2 -8 8 -14 419 -6 453 4 22 9 23 77 20 41 -2 71 -7 70 -13z"/>
<path d="M1770 650 l0 -70 35 0 c38 0 48 19 15 27 -23 6 -27 33 -5 33 8 0 15
7 15 15 0 8 -7 15 -15 15 -8 0 -15 5 -15 10 0 6 7 10 15 10 8 0 15 7 15 15 0
10 -10 15 -30 15 l-30 0 0 -70z"/>
<path d="M2005 650 c0 -50 4 -70 13 -70 9 0 12 18 10 70 -3 94 -24 94 -23 0z"/>
<path d="M2322 650 c-2 -58 0 -70 13 -70 13 0 15 12 13 70 -1 43 -6 70 -13 70
-7 0 -12 -27 -13 -70z"/>
<path d="M1850 634 c0 -30 5 -54 10 -54 6 0 10 18 10 40 0 22 5 40 10 40 6 0
10 -18 10 -40 0 -22 5 -40 11 -40 6 0 9 20 7 52 -3 49 -5 53 -30 55 -27 2 -28
1 -28 -53z"/>
<path d="M1935 682 c-3 -3 -5 -25 -5 -49 0 -36 3 -43 20 -43 11 0 20 -5 20
-11 0 -6 -9 -9 -20 -6 -26 7 -36 -9 -13 -22 36 -19 53 4 53 73 0 61 -1 64 -25
64 -13 0 -27 -3 -30 -6z"/>
<path d="M2044 681 c-2 -2 -4 -26 -4 -53 0 -35 4 -48 14 -48 11 0 16 14 19 48
l3 47 2 -47 c1 -31 7 -48 15 -48 8 0 11 16 9 55 -4 51 -5 54 -28 53 -14 -2
-27 -4 -30 -7z"/>
<path d="M2124 677 c-3 -8 -4 -32 -2 -53 2 -32 7 -40 26 -42 22 -3 42 22 27
36 -4 4 -10 1 -12 -5 -6 -18 -23 -16 -23 2 0 8 9 15 21 15 31 0 23 54 -9 58
-13 2 -24 -3 -28 -11z"/>
<path d="M2207 683 c-4 -3 -7 -28 -7 -55 0 -45 2 -48 25 -48 25 0 44 24 30 38
-4 4 -10 1 -12 -5 -6 -18 -23 -16 -23 2 0 8 9 15 20 15 13 0 20 7 20 18 0 31
-35 54 -53 35z"/>
<path d="M2270 634 c0 -40 4 -54 14 -54 11 0 13 9 9 34 -3 19 -1 36 6 40 18
12 13 32 -9 33 -18 2 -20 -4 -20 -53z"/>
<path d="M2360 633 c0 -41 3 -53 15 -53 12 0 15 10 13 40 -1 22 1 43 5 46 4 4
7 -14 7 -39 0 -37 4 -47 16 -47 11 0 14 5 10 16 -3 9 -6 33 -6 54 0 36 -2 39
-30 38 -29 -1 -30 -2 -30 -55z"/>
<path d="M2445 682 c-3 -3 -5 -25 -5 -49 0 -36 3 -43 20 -43 11 0 20 -5 20
-11 0 -6 -9 -9 -20 -6 -13 3 -20 0 -20 -8 0 -18 21 -24 43 -13 13 7 17 22 17
72 0 61 -1 64 -25 64 -13 0 -27 -3 -30 -6z"/>
<path d="M576 473 c-87 -66 -87 -67 -67 -86 20 -20 20 -20 73 21 116 90 124
98 109 116 -7 9 -17 16 -21 16 -4 0 -46 -30 -94 -67z"/>
</g>
</svg>
